<?xml version="1.0" standalone="no"?>
<!DOCTYPE svg PUBLIC "-//W3C//DTD SVG 20010904//EN"
 "http://www.w3.org/TR/2001/REC-SVG-20010904/DTD/svg10.dtd">
<svg version="1.0" xmlns="http://www.w3.org/2000/svg"
 width="512.000000pt" height="512.000000pt" viewBox="0 0 512.000000 512.000000"
 preserveAspectRatio="xMidYMid meet">
<metadata>
Created by potrace 1.11, written by Peter Selinger 2001-2013
</metadata>
<g transform="translate(0.000000,512.000000) scale(0.100000,-0.100000)"
fill="#000000" stroke="none">
<path d="M1660 4160 c-1144 -4 -1552 -8 -1571 -17 -36 -16 -77 -68 -84 -106
-3 -18 -5 -261 -3 -542 3 -509 3 -510 25 -541 12 -17 34 -39 49 -49 26 -17 34
-19 114 -29 122 -16 205 -74 260 -182 20 -40 24 -64 25 -129 0 -47 -6 -94 -14
-115 -46 -111 -137 -186 -250 -202 -127 -18 -170 -41 -197 -105 -19 -44 -19
-1029 -1 -1083 7 -20 30 -47 54 -66 23 -18 39 -36 35 -40 -4 -5 0 -3 9 4 9 6
18 10 21 7 3 -3 1097 -5 2431 -5 2682 0 2469 -6 2523 66 l29 37 0 538 0 537
-31 39 c-33 40 -75 60 -146 67 -125 12 -216 75 -270 186 -32 66 -31 196 2 265
51 106 147 170 274 184 86 10 106 19 143 68 l28 36 3 516 c2 346 0 528 -8 553
-14 50 -68 95 -122 103 -62 8 -1551 11 -3328 5z"/>
</g>
</svg>
